<svg width="25" height="25" viewBox="0 0 25 25" fill="none" xmlns="http://www.w3.org/2000/svg">
<path d="M4.61016 21.2508L2.85547 1.5625H22.143L20.3859 21.2477L12.4875 23.4375L4.61016 21.2508Z" fill="#1572B6"/>
<path d="M12.5 21.7643L18.8828 19.9947L20.3844 3.17285H12.5V21.7643Z" fill="#33A9DC"/>
<path d="M12.5 10.3055H15.6953L15.9156 7.83281H12.5V5.41797H18.5547L18.4969 6.06563L17.9039 12.7203H12.5V10.3055V10.3055Z" fill="white"/>
<path d="M12.5148 16.5765L12.5039 16.5796L9.81484 15.853L9.64297 13.9272H7.21875L7.55703 17.7187L12.5031 19.0921L12.5148 19.089V16.5765V16.5765Z" fill="#EBEBEB"/>
<path d="M15.4895 12.6182L15.1988 15.8518L12.5059 16.5783V19.0908L17.4559 17.7189L17.4926 17.3111L17.9121 12.6182H15.4895V12.6182Z" fill="white"/>
<path d="M12.5082 5.41797V7.83281H6.67539L6.62695 7.28984L6.5168 6.06562L6.45898 5.41797H12.5082V5.41797Z" fill="#EBEBEB"/>
<path d="M12.5 10.3057V12.7205H9.84453L9.79609 12.1775L9.68672 10.9533L9.62891 10.3057H12.5V10.3057Z" fill="#EBEBEB"/>
</svg>
