<svg width="25" height="25" viewBox="0 0 25 25" fill="none" xmlns="http://www.w3.org/2000/svg">
<path d="M4.61094 21.2508L2.85547 1.5625H22.1445L20.3867 21.2477L12.4883 23.4375L4.61094 21.2508Z" fill="#E44F26"/>
<path d="M12.5 21.7643L18.8828 19.9947L20.3844 3.17285H12.5V21.7643Z" fill="#F1662A"/>
<path d="M12.5 10.4744H9.30469L9.08438 8.00176H12.5V5.58691H6.44531L6.50313 6.23535L7.09609 12.8893H12.5V10.4744V10.4744Z" fill="#EBEBEB"/>
<path d="M12.4992 16.7451L12.4883 16.7482L9.79922 16.0225L9.62734 14.0967H7.20312L7.54141 17.8873L12.4883 19.2607L12.4992 19.2576V16.7451Z" fill="#EBEBEB"/>
<path d="M12.4922 10.4741V12.889H15.4656L15.1859 16.021L12.4922 16.7476V19.2601L17.443 17.8874L17.4789 17.4796L18.0461 11.1226L18.1055 10.4741H12.4922V10.4741Z" fill="white"/>
<path d="M12.4922 5.58691V8.00176H18.325L18.3734 7.45957L18.4836 6.23535L18.5414 5.58691H12.4922V5.58691Z" fill="white"/>
</svg>
