<svg width="140" height="67" viewBox="0 0 140 67" fill="none" xmlns="http://www.w3.org/2000/svg">
<g clip-path="url(#clip0)">
<rect width="140" height="67" fill="white"/>
<path d="M11.8841 39C10.9721 39 10.3241 38.824 9.94006 38.472C9.57206 38.104 9.38806 37.568 9.38806 36.864C9.38806 36.656 9.39606 36.328 9.41206 35.88C9.44406 35.416 9.48406 34.872 9.53206 34.248C9.58006 33.624 9.62806 32.944 9.67606 32.208C9.74006 31.472 9.80406 30.72 9.86806 29.952C9.94806 29.008 10.0121 28.2 10.0601 27.528C10.1241 26.84 10.1721 26.256 10.2041 25.776C10.2361 25.28 10.2601 24.872 10.2761 24.552C10.3081 24.216 10.3241 23.928 10.3241 23.688C10.3401 23.432 10.3481 23.2 10.3481 22.992C10.3641 22.784 10.3721 22.56 10.3721 22.32C10.3721 22.192 10.4121 22.104 10.4921 22.056C10.5721 21.992 10.6521 21.96 10.7321 21.96C11.1481 21.96 11.6041 21.952 12.1001 21.936C12.5961 21.904 13.0921 21.872 13.5881 21.84C14.0841 21.808 14.5641 21.784 15.0281 21.768C15.4921 21.736 15.9001 21.72 16.2521 21.72C17.2761 21.72 18.1561 21.848 18.8921 22.104C19.6281 22.344 20.2201 22.704 20.6681 23.184C21.1321 23.648 21.4681 24.216 21.6761 24.888C21.9001 25.56 22.0121 26.328 22.0121 27.192C22.0121 28.136 21.8841 29.048 21.6281 29.928C21.3881 30.792 21.0041 31.56 20.4761 32.232C19.9481 32.904 19.2681 33.44 18.4361 33.84C17.6041 34.24 16.6121 34.44 15.4601 34.44C14.7721 34.44 14.1881 34.368 13.7081 34.224L13.3721 38.64C13.3561 38.768 13.3241 38.864 13.2761 38.928C13.2281 38.976 13.1321 39 12.9881 39H11.8841ZM15.7721 25.32C15.5641 25.32 15.3321 25.336 15.0761 25.368C14.8201 25.384 14.5481 25.408 14.2601 25.44C14.2281 26.112 14.1881 26.928 14.1401 27.888C14.0921 28.848 14.0281 29.856 13.9481 30.912C14.1881 30.976 14.4201 31.024 14.6441 31.056C14.8841 31.072 15.1001 31.08 15.2921 31.08C15.8521 31.08 16.3001 30.952 16.6361 30.696C16.9881 30.424 17.2601 30.096 17.4521 29.712C17.6441 29.328 17.7721 28.928 17.8361 28.512C17.9001 28.096 17.9321 27.736 17.9321 27.432C17.9321 26.744 17.7721 26.224 17.4521 25.872C17.1481 25.504 16.5881 25.32 15.7721 25.32ZM28.6334 39.24C27.5294 39.24 26.6094 39.088 25.8734 38.784C25.1534 38.464 24.5774 38.032 24.1454 37.488C23.7134 36.944 23.4094 36.312 23.2334 35.592C23.0574 34.856 22.9694 34.072 22.9694 33.24C22.9694 32.28 23.0814 31.344 23.3054 30.432C23.5454 29.504 23.9454 28.68 24.5054 27.96C25.0654 27.24 25.8014 26.664 26.7134 26.232C27.6414 25.784 28.7934 25.56 30.1694 25.56C32.1854 25.56 33.6254 26.056 34.4894 27.048C35.3694 28.024 35.8094 29.4 35.8094 31.176C35.8094 31.672 35.7694 32.224 35.6894 32.832C35.6254 33.424 35.4894 34.016 35.2814 34.608C35.0894 35.2 34.8174 35.776 34.4654 36.336C34.1294 36.896 33.6974 37.392 33.1694 37.824C32.6414 38.256 32.0014 38.6 31.2494 38.856C30.5134 39.112 29.6414 39.24 28.6334 39.24ZM29.7614 28.752C29.1534 28.752 28.6654 28.912 28.2974 29.232C27.9454 29.536 27.6734 29.912 27.4814 30.36C27.3054 30.792 27.1854 31.256 27.1214 31.752C27.0734 32.232 27.0494 32.64 27.0494 32.976C27.0494 34.032 27.2174 34.808 27.5534 35.304C27.8894 35.8 28.3694 36.048 28.9934 36.048C29.5534 36.048 30.0094 35.872 30.3614 35.52C30.7294 35.168 31.0094 34.744 31.2014 34.248C31.4094 33.752 31.5454 33.232 31.6094 32.688C31.6894 32.144 31.7294 31.688 31.7294 31.32C31.7294 30.52 31.5774 29.896 31.2734 29.448C30.9854 28.984 30.4814 28.752 29.7614 28.752ZM50.3011 36.432C50.5091 35.264 50.6851 34.248 50.8291 33.384C50.9891 32.504 51.1171 31.744 51.2131 31.104C51.3251 30.464 51.4131 29.912 51.4771 29.448C51.5571 28.984 51.6211 28.576 51.6691 28.224C51.7331 27.856 51.7811 27.536 51.8131 27.264C51.8611 26.976 51.9091 26.68 51.9571 26.376C51.9891 26.2 52.0691 26.064 52.1971 25.968C52.3411 25.872 52.6051 25.824 52.9891 25.824C53.1971 25.824 53.4851 25.84 53.8531 25.872C54.2371 25.888 54.6131 25.944 54.9811 26.04C55.3491 26.136 55.6611 26.288 55.9171 26.496C56.1891 26.688 56.3251 26.96 56.3251 27.312C56.3251 27.568 56.2531 27.952 56.1091 28.464C55.9651 28.96 55.7811 29.536 55.5571 30.192C55.3331 30.848 55.0771 31.552 54.7891 32.304C54.5011 33.04 54.2051 33.776 53.9011 34.512C53.6131 35.232 53.3331 35.92 53.0611 36.576C52.7891 37.232 52.5571 37.8 52.3651 38.28C52.2371 38.568 52.1091 38.76 51.9811 38.856C51.8691 38.952 51.6611 39 51.3571 39H49.9411C49.4931 39 49.1251 38.944 48.8371 38.832C48.5491 38.72 48.3171 38.568 48.1411 38.376C47.9651 38.184 47.8291 37.968 47.7331 37.728C47.6371 37.472 47.5651 37.2 47.5171 36.912C47.3571 36.096 47.1891 35 47.0131 33.624C46.8371 32.248 46.6771 30.624 46.5331 28.752C46.4531 29.104 46.3571 29.576 46.2451 30.168C46.1491 30.76 46.0371 31.4 45.9091 32.088C45.7971 32.776 45.6771 33.48 45.5491 34.2C45.4211 34.92 45.3011 35.592 45.1891 36.216C45.0771 36.824 44.9731 37.352 44.8771 37.8C44.7811 38.232 44.7011 38.512 44.6371 38.64C44.5571 38.8 44.4531 38.904 44.3251 38.952C44.2131 38.984 44.0451 39 43.8211 39H42.1411C41.7251 39 41.3651 38.944 41.0611 38.832C40.7731 38.704 40.5171 38.544 40.2931 38.352C40.0851 38.16 39.9091 37.944 39.7651 37.704C39.6371 37.448 39.5411 37.184 39.4771 36.912C38.5971 33.488 37.9331 30.904 37.4851 29.16C37.0531 27.416 36.8371 26.48 36.8371 26.352C36.8371 26.208 36.9091 26.08 37.0531 25.968C37.1971 25.856 37.3811 25.8 37.6051 25.8C38.2931 25.8 38.8851 25.832 39.3811 25.896C39.8771 25.944 40.2851 26.04 40.6051 26.184C40.9411 26.328 41.1971 26.528 41.3731 26.784C41.5491 27.04 41.6611 27.376 41.7091 27.792C41.7251 28.016 41.7571 28.472 41.8051 29.16C41.8531 29.848 41.9011 30.632 41.9491 31.512C42.0131 32.376 42.0691 33.256 42.1171 34.152C42.1811 35.048 42.2371 35.808 42.2851 36.432C42.4771 35.44 42.6291 34.648 42.7411 34.056C42.8691 33.464 42.9731 32.968 43.0531 32.568C43.1331 32.168 43.1971 31.816 43.2451 31.512C43.3091 31.208 43.3811 30.848 43.4611 30.432C43.5411 30.016 43.6291 29.496 43.7251 28.872C43.8371 28.248 43.9891 27.416 44.1811 26.376C44.2451 25.992 44.6691 25.8 45.4531 25.8C45.9491 25.8 46.4131 25.816 46.8451 25.848C47.2771 25.88 47.6611 25.96 47.9971 26.088C48.3331 26.2 48.6211 26.376 48.8611 26.616C49.1011 26.84 49.2691 27.152 49.3651 27.552C49.3971 27.664 49.4211 27.776 49.4371 27.888C49.4691 28 49.5011 28.16 49.5331 28.368C49.5651 28.576 49.5971 28.864 49.6291 29.232C49.6771 29.6 49.7251 30.096 49.7731 30.72C49.8371 31.344 49.9091 32.12 49.9891 33.048C50.0691 33.976 50.1731 35.104 50.3011 36.432ZM62.9968 39.24C62.2928 39.24 61.5888 39.152 60.8848 38.976C60.1968 38.8 59.5728 38.496 59.0128 38.064C58.4688 37.632 58.0208 37.056 57.6688 36.336C57.3168 35.616 57.1408 34.712 57.1408 33.624C57.1408 33.224 57.1728 32.744 57.2368 32.184C57.3008 31.624 57.4208 31.048 57.5968 30.456C57.7888 29.864 58.0448 29.28 58.3648 28.704C58.7008 28.112 59.1328 27.584 59.6608 27.12C60.1888 26.656 60.8288 26.28 61.5808 25.992C62.3328 25.704 63.2288 25.56 64.2688 25.56C65.1008 25.56 65.8048 25.656 66.3808 25.848C66.9568 26.04 67.4208 26.304 67.7728 26.64C68.1248 26.96 68.3808 27.336 68.5408 27.768C68.7008 28.2 68.7808 28.664 68.7808 29.16C68.7808 29.896 68.6288 30.52 68.3248 31.032C68.0368 31.544 67.6528 31.976 67.1728 32.328C66.7088 32.664 66.1888 32.928 65.6128 33.12C65.0368 33.312 64.4688 33.464 63.9088 33.576C63.3488 33.672 62.8288 33.736 62.3488 33.768C61.8848 33.784 61.5248 33.792 61.2688 33.792C61.2688 34.096 61.3088 34.4 61.3888 34.704C61.4848 34.992 61.6208 35.248 61.7968 35.472C61.9728 35.696 62.2048 35.88 62.4928 36.024C62.7808 36.168 63.1328 36.24 63.5488 36.24C63.9648 36.24 64.2848 36.176 64.5088 36.048C64.7488 35.904 64.9408 35.752 65.0848 35.592C65.2288 35.416 65.3488 35.264 65.4448 35.136C65.5568 34.992 65.7008 34.92 65.8768 34.92C65.9568 34.92 66.0928 34.944 66.2848 34.992C66.4928 35.024 66.7008 35.104 66.9088 35.232C67.1168 35.36 67.3008 35.536 67.4608 35.76C67.6208 35.984 67.7008 36.272 67.7008 36.624C67.7008 37.088 67.5568 37.488 67.2688 37.824C66.9808 38.16 66.6048 38.432 66.1408 38.64C65.6928 38.848 65.1888 39 64.6288 39.096C64.0688 39.192 63.5248 39.24 62.9968 39.24ZM63.4528 28.752C63.1008 28.752 62.7968 28.856 62.5408 29.064C62.3008 29.256 62.0928 29.504 61.9168 29.808C61.7568 30.112 61.6288 30.448 61.5328 30.816C61.4528 31.184 61.3888 31.536 61.3408 31.872C62.3328 31.856 63.1328 31.688 63.7408 31.368C64.3648 31.048 64.6768 30.592 64.6768 30C64.6768 29.68 64.5728 29.392 64.3648 29.136C64.1728 28.88 63.8688 28.752 63.4528 28.752ZM77.9782 31.536C77.8822 31.536 77.7702 31.536 77.6422 31.536C77.5302 31.52 77.4182 31.504 77.3062 31.488C77.1942 31.456 77.0982 31.424 77.0182 31.392C76.9382 31.344 76.8982 31.288 76.8982 31.224C76.8982 31.016 76.9062 30.824 76.9222 30.648C76.9382 30.472 76.9462 30.288 76.9462 30.096C76.9462 29.744 76.8982 29.456 76.8022 29.232C76.7062 29.008 76.5142 28.896 76.2262 28.896C75.7782 28.896 75.4022 29.192 75.0982 29.784C74.8102 30.36 74.6262 31.232 74.5462 32.4C74.5142 32.912 74.4662 33.496 74.4022 34.152C74.3542 34.792 74.3062 35.416 74.2582 36.024C74.2102 36.616 74.1702 37.144 74.1382 37.608C74.1062 38.072 74.0902 38.376 74.0902 38.52C74.0902 38.68 74.0342 38.8 73.9222 38.88C73.8102 38.96 73.6902 39 73.5622 39H72.6982C72.2022 39 71.7942 38.952 71.4742 38.856C71.1702 38.744 70.9222 38.592 70.7302 38.4C70.5542 38.208 70.4262 37.976 70.3462 37.704C70.2822 37.416 70.2502 37.088 70.2502 36.72C70.2502 36.48 70.2582 36.144 70.2742 35.712C70.3062 35.264 70.3542 34.656 70.4182 33.888C70.4822 33.104 70.5542 32.12 70.6342 30.936C70.7302 29.736 70.8422 28.256 70.9702 26.496C71.0022 26.032 71.1702 25.8 71.4742 25.8H72.4102C72.8582 25.8 73.2342 25.848 73.5382 25.944C73.8422 26.04 74.0902 26.176 74.2822 26.352C74.4742 26.512 74.6102 26.704 74.6902 26.928C74.7862 27.152 74.8502 27.384 74.8822 27.624C75.0742 27.256 75.2982 26.944 75.5542 26.688C75.8262 26.416 76.1062 26.2 76.3942 26.04C76.6822 25.864 76.9782 25.744 77.2822 25.68C77.5862 25.6 77.8662 25.56 78.1222 25.56C78.4262 25.56 78.7302 25.616 79.0342 25.728C79.3542 25.84 79.6422 26.008 79.8982 26.232C80.1542 26.456 80.3542 26.744 80.4982 27.096C80.6582 27.448 80.7382 27.864 80.7382 28.344C80.7382 28.776 80.6742 29.184 80.5462 29.568C80.4182 29.952 80.2342 30.296 79.9942 30.6C79.7542 30.888 79.4582 31.12 79.1062 31.296C78.7702 31.456 78.3942 31.536 77.9782 31.536ZM88.5781 25.32L87.6661 38.64C87.6501 38.88 87.5621 39 87.4021 39H86.0821C85.1861 39 84.5461 38.824 84.1621 38.472C83.7781 38.12 83.5861 37.616 83.5861 36.96C83.5861 36.72 83.5941 36.36 83.6101 35.88C83.6421 35.4 83.6821 34.84 83.7301 34.2C83.7781 33.544 83.8261 32.84 83.8741 32.088C83.9381 31.32 84.0021 30.552 84.0661 29.784C84.1301 29 84.1861 28.224 84.2341 27.456C84.2981 26.688 84.3541 25.976 84.4021 25.32H80.5621C80.3861 25.32 80.2981 25.208 80.2981 24.984L80.3701 23.64C80.3861 23.432 80.4181 23.232 80.4661 23.04C80.5301 22.832 80.6261 22.648 80.7541 22.488C80.8821 22.328 81.0421 22.2 81.2341 22.104C81.4421 22.008 81.6901 21.96 81.9781 21.96H92.7061C92.8021 21.96 92.8901 21.984 92.9701 22.032C93.0501 22.08 93.0901 22.168 93.0901 22.296L92.9941 23.712C92.9621 24.192 92.8261 24.584 92.5861 24.888C92.3621 25.176 91.8901 25.32 91.1701 25.32H88.5781ZM97.8014 39.24C97.0974 39.24 96.3934 39.152 95.6894 38.976C95.0014 38.8 94.3774 38.496 93.8174 38.064C93.2734 37.632 92.8254 37.056 92.4734 36.336C92.1214 35.616 91.9454 34.712 91.9454 33.624C91.9454 33.224 91.9774 32.744 92.0414 32.184C92.1054 31.624 92.2254 31.048 92.4014 30.456C92.5934 29.864 92.8494 29.28 93.1694 28.704C93.5054 28.112 93.9374 27.584 94.4654 27.12C94.9934 26.656 95.6334 26.28 96.3854 25.992C97.1374 25.704 98.0334 25.56 99.0734 25.56C99.9054 25.56 100.609 25.656 101.185 25.848C101.761 26.04 102.225 26.304 102.577 26.64C102.929 26.96 103.185 27.336 103.345 27.768C103.505 28.2 103.585 28.664 103.585 29.16C103.585 29.896 103.433 30.52 103.129 31.032C102.841 31.544 102.457 31.976 101.977 32.328C101.513 32.664 100.993 32.928 100.417 33.12C99.8414 33.312 99.2734 33.464 98.7134 33.576C98.1534 33.672 97.6334 33.736 97.1534 33.768C96.6894 33.784 96.3294 33.792 96.0734 33.792C96.0734 34.096 96.1134 34.4 96.1934 34.704C96.2894 34.992 96.4254 35.248 96.6014 35.472C96.7774 35.696 97.0094 35.88 97.2974 36.024C97.5854 36.168 97.9374 36.24 98.3534 36.24C98.7694 36.24 99.0894 36.176 99.3134 36.048C99.5534 35.904 99.7454 35.752 99.8894 35.592C100.033 35.416 100.153 35.264 100.249 35.136C100.361 34.992 100.505 34.92 100.681 34.92C100.761 34.92 100.897 34.944 101.089 34.992C101.297 35.024 101.505 35.104 101.713 35.232C101.921 35.36 102.105 35.536 102.265 35.76C102.425 35.984 102.505 36.272 102.505 36.624C102.505 37.088 102.361 37.488 102.073 37.824C101.785 38.16 101.409 38.432 100.945 38.64C100.497 38.848 99.9934 39 99.4334 39.096C98.8734 39.192 98.3294 39.24 97.8014 39.24ZM98.2574 28.752C97.9054 28.752 97.6014 28.856 97.3454 29.064C97.1054 29.256 96.8974 29.504 96.7214 29.808C96.5614 30.112 96.4334 30.448 96.3374 30.816C96.2574 31.184 96.1934 31.536 96.1454 31.872C97.1374 31.856 97.9374 31.688 98.5454 31.368C99.1694 31.048 99.4814 30.592 99.4814 30C99.4814 29.68 99.3774 29.392 99.1694 29.136C98.9774 28.88 98.6734 28.752 98.2574 28.752ZM111.079 36.048C111.543 36.048 111.943 35.984 112.279 35.856C112.631 35.728 112.935 35.584 113.191 35.424C113.447 35.264 113.663 35.12 113.839 34.992C114.015 34.864 114.175 34.8 114.319 34.8C114.687 34.8 114.871 35.04 114.871 35.52C114.871 35.632 114.847 35.792 114.799 36C114.751 36.192 114.687 36.4 114.607 36.624C114.527 36.832 114.439 37.032 114.343 37.224C114.263 37.416 114.183 37.56 114.103 37.656C114.023 37.736 113.879 37.864 113.671 38.04C113.479 38.216 113.215 38.392 112.879 38.568C112.543 38.744 112.151 38.896 111.703 39.024C111.255 39.168 110.759 39.24 110.215 39.24C109.607 39.24 108.975 39.152 108.319 38.976C107.679 38.784 107.095 38.464 106.567 38.016C106.039 37.552 105.599 36.936 105.247 36.168C104.911 35.384 104.743 34.408 104.743 33.24C104.743 32.824 104.767 32.352 104.815 31.824C104.879 31.28 104.999 30.728 105.175 30.168C105.351 29.592 105.583 29.032 105.871 28.488C106.175 27.928 106.575 27.432 107.071 27C107.567 26.568 108.159 26.224 108.847 25.968C109.551 25.696 110.383 25.56 111.343 25.56C112.127 25.56 112.799 25.656 113.359 25.848C113.935 26.024 114.407 26.272 114.775 26.592C115.143 26.896 115.415 27.256 115.591 27.672C115.783 28.088 115.879 28.536 115.879 29.016C115.879 29.88 115.607 30.52 115.063 30.936C114.519 31.336 113.751 31.536 112.759 31.536C112.519 31.536 112.351 31.52 112.255 31.488C112.175 31.44 112.135 31.344 112.135 31.2C112.135 30.816 112.127 30.472 112.111 30.168C112.095 29.864 112.047 29.608 111.967 29.4C111.903 29.192 111.799 29.032 111.655 28.92C111.511 28.808 111.303 28.752 111.031 28.752C110.535 28.752 110.135 28.912 109.831 29.232C109.543 29.552 109.319 29.944 109.159 30.408C109.015 30.856 108.919 31.32 108.871 31.8C108.839 32.28 108.823 32.68 108.823 33C108.823 34.136 108.999 34.928 109.351 35.376C109.719 35.824 110.295 36.048 111.079 36.048ZM125.186 36.024C125.234 35.496 125.282 34.944 125.33 34.368C125.394 33.792 125.442 33.24 125.474 32.712C125.522 32.184 125.562 31.712 125.594 31.296C125.626 30.88 125.642 30.576 125.642 30.384C125.642 29.968 125.538 29.6 125.33 29.28C125.138 28.944 124.754 28.776 124.178 28.776C123.41 28.776 122.786 29.136 122.306 29.856C121.842 30.576 121.57 31.536 121.49 32.736C121.458 33.072 121.418 33.544 121.37 34.152C121.322 34.744 121.274 35.352 121.226 35.976C121.178 36.584 121.13 37.136 121.082 37.632C121.05 38.112 121.034 38.408 121.034 38.52C121.034 38.712 120.994 38.84 120.914 38.904C120.85 38.968 120.714 39 120.506 39H119.642C119.146 39 118.738 38.952 118.418 38.856C118.114 38.744 117.866 38.592 117.674 38.4C117.498 38.208 117.37 37.976 117.29 37.704C117.226 37.416 117.194 37.088 117.194 36.72C117.194 36.368 117.218 35.88 117.266 35.256C117.33 34.616 117.41 33.744 117.506 32.64C117.602 31.52 117.714 30.096 117.842 28.368C117.97 26.64 118.106 24.496 118.25 21.936C118.266 21.584 118.306 21.376 118.37 21.312C118.418 21.264 118.546 21.24 118.754 21.24H119.69C120.17 21.24 120.57 21.296 120.89 21.408C121.21 21.52 121.466 21.672 121.658 21.864C121.85 22.056 121.986 22.28 122.066 22.536C122.146 22.776 122.186 23.032 122.186 23.304C122.186 23.592 122.154 24.128 122.09 24.912C122.042 25.696 121.978 26.616 121.898 27.672C122.378 26.872 122.906 26.32 123.482 26.016C124.074 25.712 124.818 25.56 125.714 25.56C126.386 25.56 126.97 25.632 127.466 25.776C127.962 25.92 128.37 26.168 128.69 26.52C129.026 26.856 129.274 27.304 129.434 27.864C129.594 28.408 129.674 29.088 129.674 29.904C129.674 30.16 129.65 30.6 129.602 31.224C129.554 31.848 129.49 32.56 129.41 33.36C129.346 34.16 129.274 35 129.194 35.88C129.13 36.744 129.074 37.536 129.026 38.256C129.01 38.432 128.994 38.568 128.978 38.664C128.962 38.76 128.93 38.832 128.882 38.88C128.85 38.928 128.794 38.96 128.714 38.976C128.634 38.992 128.522 39 128.378 39H127.61C127.098 39 126.682 38.952 126.362 38.856C126.042 38.76 125.794 38.624 125.618 38.448C125.442 38.272 125.314 38.056 125.234 37.8C125.17 37.528 125.138 37.224 125.138 36.888C125.138 36.728 125.138 36.576 125.138 36.432C125.154 36.288 125.17 36.152 125.186 36.024Z" fill="black"/>
</g>
<defs>
<clipPath id="clip0">
<rect width="140" height="67" fill="white"/>
</clipPath>
</defs>
</svg>
