<svg width="25" height="25" viewBox="0 0 25 25" fill="none" xmlns="http://www.w3.org/2000/svg">
<path d="M12.5 14.4329C13.5787 14.4329 14.4531 13.5584 14.4531 12.4797C14.4531 11.4011 13.5787 10.5266 12.5 10.5266C11.4213 10.5266 10.5469 11.4011 10.5469 12.4797C10.5469 13.5584 11.4213 14.4329 12.5 14.4329Z" fill="#00D8FF"/>
<path d="M12.5 16.9575C10.1524 17.0143 7.81078 16.6978 5.5625 16.02C4.52392 15.6908 3.55526 15.1721 2.70547 14.4903C2.3812 14.2574 2.11115 13.9571 1.91386 13.61C1.71657 13.2628 1.59671 12.8772 1.5625 12.4794C1.5625 11.188 2.98125 9.92235 5.35781 9.09422C7.6662 8.36043 10.0781 8.0048 12.5 8.0411C14.8896 8.00771 17.2692 8.35692 19.5484 9.07547C20.5487 9.39434 21.4845 9.88791 22.3125 10.5333C22.6312 10.7553 22.8972 11.0448 23.0916 11.3811C23.2861 11.7174 23.4041 12.0924 23.4375 12.4794C23.4375 13.8216 21.8516 15.1817 19.2969 16.027C17.0921 16.6828 14.7999 16.9966 12.5 16.9575V16.9575ZM12.5 8.97547C10.1829 8.9445 7.87565 9.28258 5.66484 9.97703C3.47734 10.7403 2.49688 11.7841 2.49688 12.477C2.49688 13.202 3.55078 14.3419 5.86484 15.1333C8.01568 15.7785 10.2552 16.0788 12.5 16.0231C14.7003 16.0625 16.8937 15.7648 19.0039 15.1403C21.4063 14.3442 22.5 13.2028 22.5 12.4794C22.4606 12.2311 22.3701 11.9937 22.2343 11.7822C22.0985 11.5707 21.9203 11.3896 21.7109 11.2505C20.9701 10.6779 20.1341 10.2405 19.2414 9.95828C17.061 9.27372 14.7851 8.94193 12.5 8.97547V8.97547Z" fill="#00D8FF"/>
<path d="M8.06122 22.2211C7.69677 22.2295 7.33661 22.1411 7.01747 21.9649C5.89872 21.3196 5.51122 19.4586 5.98075 16.986C6.49844 14.6196 7.39544 12.3526 8.637 10.2727C9.80163 8.18604 11.2926 6.29918 13.0534 4.68362C13.8293 3.97636 14.7244 3.41217 15.6972 3.01721C16.049 2.85232 16.4328 2.76685 16.8214 2.76685C17.2099 2.76685 17.5938 2.85232 17.9456 3.01721C19.1089 3.68752 19.494 5.74065 18.9511 8.37581C18.4174 10.6137 17.5437 12.7566 16.3604 14.7297C15.2368 16.7917 13.7928 18.6621 12.0823 20.2711C11.2782 21.0061 10.3451 21.5859 9.32997 21.9813C8.92358 22.1321 8.49463 22.2132 8.06122 22.2211V22.2211ZM9.44638 10.7367C8.26208 12.7284 7.40236 14.8959 6.8995 17.1578C6.46747 19.4352 6.88231 20.8047 7.48544 21.1532C8.11044 21.5149 9.62763 21.1719 11.4698 19.5625C13.1026 18.0211 14.4809 16.2307 15.5534 14.2578C16.687 12.3715 17.525 10.3228 18.0386 8.18284C18.5495 5.70237 18.1081 4.18362 17.4815 3.82268C17.2467 3.7327 16.9958 3.69242 16.7446 3.70439C16.4934 3.71636 16.2474 3.78031 16.0222 3.89221C15.1563 4.24951 14.3602 4.75677 13.6706 5.39065C11.9883 6.93814 10.5641 8.74451 9.45185 10.7414L9.44638 10.7367Z" fill="#00D8FF"/>
<path d="M16.9349 22.2313C15.8763 22.2313 14.5318 21.5907 13.1318 20.3868C11.3402 18.7565 9.82396 16.8472 8.64195 14.7329C7.41596 12.6816 6.52606 10.4473 6.00601 8.11489C5.78047 7.08871 5.73868 6.03066 5.88257 4.98989C5.91584 4.6038 6.0334 4.22971 6.22697 3.894C6.42054 3.55829 6.68541 3.26913 7.00289 3.04692C8.1646 2.37426 10.1357 3.06567 12.1474 4.85161C13.8198 6.43144 15.2399 8.25841 16.3584 10.2688C17.5836 12.2722 18.4828 14.4575 19.0224 16.743C19.2577 17.8068 19.294 18.905 19.1294 19.9821C19.0903 20.3793 18.9657 20.7633 18.7643 21.1078C18.5628 21.4524 18.2892 21.7493 17.9623 21.9782C17.6483 22.1522 17.2938 22.2395 16.9349 22.2313V22.2313ZM9.45054 14.2625C10.5845 16.2832 12.0328 18.1105 13.7412 19.6758C15.4982 21.1875 16.8919 21.5125 17.4912 21.1602C18.1162 20.7969 18.5771 19.3141 18.1021 16.9149C17.5817 14.7328 16.7192 12.6468 15.5466 10.7344C14.4793 8.8103 13.1238 7.06087 11.5271 5.54692C9.63335 3.86567 8.09742 3.48989 7.47164 3.85239C7.27659 4.01089 7.11653 4.20811 7.00156 4.4316C6.88659 4.65508 6.81921 4.89998 6.80367 5.15083C6.67945 6.07902 6.71992 7.02184 6.9232 7.93598C7.42343 10.1666 8.2769 12.3029 9.45132 14.2641L9.45054 14.2625Z" fill="#00D8FF"/>
</svg>
