<svg width="60" height="60" viewBox="0 0 60 60" fill="none" xmlns="http://www.w3.org/2000/svg">
<path d="M41.2742 14.1045L42.7652 10.6885L42.343 10.5136L41.3585 11.742C40.8172 12.4057 40.2874 12.7507 39.7691 12.7771C39.4969 12.7912 39.2092 12.7354 38.9061 12.6099L37.0547 11.843L40.7276 2.97592L42.108 3.5477L42.2896 3.10922L37.6125 1.17188L37.4309 1.61036L38.7301 2.14851L35.0572 11.0156L33.758 10.4774L33.5764 10.9159L41.2742 14.1045Z" fill="white"/>
<path d="M51.1696 9.13544C50.1007 8.0665 48.8536 7.49888 47.4283 7.43258C45.9202 7.36629 44.5943 7.90491 43.4508 9.04843C42.1333 10.366 41.5781 11.8575 41.7853 13.5231C41.9427 14.7743 42.4896 15.8681 43.426 16.8045C44.4866 17.8652 45.7296 18.4204 47.1548 18.4701C48.663 18.5198 49.9888 17.9729 51.1323 16.8294C52.4913 15.4704 53.0465 13.954 52.7979 12.2801C52.6239 11.0952 52.0811 10.0469 51.1696 9.13544ZM43.8237 16.4813C42.7962 15.4538 42.6802 14.2523 43.4757 12.8768C43.8486 12.2387 44.3996 11.5551 45.1288 10.8259C47.3413 8.6134 49.1394 8.08307 50.5233 9.23488C50.6144 9.30946 50.6973 9.38403 50.7719 9.45861C51.8822 10.569 51.8822 11.9197 50.7719 13.5107C50.4321 13.9996 49.9929 14.5133 49.4543 15.0519C47.4159 17.0904 45.7462 17.7326 44.4452 16.9785C44.2297 16.8459 44.0226 16.6802 43.8237 16.4813Z" fill="white"/>
<path d="M47.7147 23.3473L58.5006 22.8371L58.837 23.6491L59.2755 23.4675L58.1386 20.7229L57.7001 20.9045L58.2383 22.2037L50.0528 22.6071L56.0184 16.8445L56.5498 18.1275L56.9883 17.9459L55.2663 13.7884L54.8278 13.97L55.191 14.847L48.399 21.3705C47.8462 21.9039 47.547 22.2688 47.5015 22.4652C47.4643 22.6202 47.4949 22.8168 47.5936 23.055L47.7147 23.3473Z" fill="white"/>
<path d="M56.2422 34.3026L59.5469 34.2323V25.6542H59.0723V27.0604H49.4746V25.6542H49V34.2323L52.3047 34.3026V33.8456L51.2148 33.494C50.3008 33.1893 49.75 32.7323 49.5625 32.1229C49.5039 31.9237 49.4746 31.7069 49.4746 31.4725V29.2225H54.168V32.6854H54.6953V29.2225H59.0723V31.4725C59.0723 32.3749 58.6035 33.0136 57.666 33.3886C57.5605 33.4354 57.4492 33.4764 57.332 33.5116L56.2422 33.8456V34.3026Z" fill="white"/>
<path d="M41.3932 45.4769C41.6666 45.6177 41.8862 45.6219 42.052 45.4893L42.8972 44.6441L49.6837 51.4306L49.3109 51.8035C48.706 52.4084 47.9685 52.5327 47.0984 52.1764C46.9575 52.1184 46.8167 52.0521 46.6758 51.9775L45.321 51.2691L44.9605 51.6295L47.608 54.1776L53.9471 47.8385L51.4115 45.1785L51.0386 45.5514L51.7471 46.9063C52.1945 47.7515 52.265 48.46 51.9584 49.0317C51.8672 49.2057 51.7388 49.3756 51.573 49.5413L51.2126 49.9018L44.426 43.1152L45.6068 41.9344L45.2712 41.5988L41.3932 45.4769Z" fill="white"/>
<path d="M38.1723 47.1804C38.3494 47.4241 38.5561 47.5098 38.7924 47.4372L39.6531 47.0807L41.4492 51.4168L37.0482 53.2398L35.2521 48.9037L36.5513 48.3655L36.3697 47.9271L31.79 49.824C31.9887 50.0588 32.19 50.1467 32.3938 50.0876L33.2546 49.7311L36.9274 58.5982L35.6445 59.1296L35.8261 59.5681L40.4058 57.6711L40.2242 57.2326L38.9249 57.7708L37.25 53.727L41.651 51.904L43.326 55.9478L42.0268 56.4859L42.2084 56.9244L46.8044 55.0207L46.6227 54.5822L45.3235 55.1204L41.6507 46.2533L42.9499 45.7152L42.7682 45.2767L38.1723 47.1804Z" fill="white"/>
<path d="M25.6974 56.2422L25.7677 59.5469H34.3458V59.0723H32.9396V49.4746H34.3458V49H25.7677L25.6974 52.3047H26.1544L26.506 51.2148C26.8107 50.3008 27.2677 49.75 27.8771 49.5625C28.0763 49.5039 28.2931 49.4746 28.5275 49.4746H30.7775V54.168H27.3146V54.6953H30.7775V59.0723H28.5275C27.6251 59.0723 26.9864 58.6035 26.6114 57.666C26.5646 57.5605 26.5235 57.4492 26.4884 57.332L26.1544 56.2422H25.6974Z" fill="white"/>
<path d="M12.9666 54.7522L13.3022 54.4166L12.3078 53.4222L19.0944 46.6357L20.0888 47.63L20.4244 47.2944L16.8074 43.6774C15.6721 42.5422 14.3877 41.9538 12.9542 41.9124C11.5372 41.871 10.2818 42.3972 9.188 43.491C7.79588 44.8831 7.28212 46.4326 7.64673 48.1396C7.88703 49.2417 8.45879 50.2444 9.36201 51.1476L12.9666 54.7522ZM9.68518 50.7996C8.67424 49.7886 8.50437 48.641 9.17557 47.3566C9.5236 46.7102 10.0788 46.0059 10.8411 45.2435C12.7387 43.3459 14.3297 42.7245 15.6141 43.3791C15.9124 43.5282 16.1983 43.7396 16.4718 44.013L17.5656 45.1068L10.779 51.8934L9.68518 50.7996Z" fill="white"/>
<path d="M4.10884 36.0673L1.08262 37.397L4.36532 45.3221L4.80381 45.1405L4.26566 43.8413L13.1327 40.1684L13.6709 41.4676L14.1094 41.286L10.8267 33.3608L7.74662 34.5605L7.92152 34.9828L9.06294 34.8905C10.024 34.8222 10.7078 35.0337 11.1142 35.5249C11.2446 35.6865 11.3546 35.8756 11.4443 36.0922L12.3053 38.1709L7.96923 39.967L6.64404 36.7677L6.15684 36.9695L7.48203 40.1688L3.43825 41.8438L2.57722 39.765C2.2319 38.9314 2.42056 38.1619 3.14319 37.4567C3.2227 37.373 3.30985 37.2925 3.40467 37.2152L4.28374 36.4896L4.10884 36.0673Z" fill="white"/>
<path d="M8.11719 25.7677C7.12109 25.7677 6.2832 26.3185 5.60352 27.42C5.50977 27.5841 5.19336 28.2169 4.6543 29.3185C4.15039 30.3263 3.6582 30.9532 3.17773 31.1993C2.91992 31.3282 2.65625 31.3927 2.38672 31.3927C1.68359 31.3927 1.20312 31.0528 0.945312 30.3732C0.839844 30.1036 0.787109 29.8165 0.787109 29.5118C0.787109 28.5509 1.13281 27.8243 1.82422 27.3321C2.29297 27.004 2.84961 26.84 3.49414 26.84V26.2071H0.347656C0.347656 26.5353 0.458984 26.7228 0.681641 26.7696C0.763672 26.7814 0.857422 26.7872 0.962891 26.7872C0.505859 27.713 0.277344 28.7091 0.277344 29.7755C0.277344 31.1349 0.640625 32.172 1.36719 32.8868C1.84766 33.3556 2.41602 33.59 3.07227 33.59C4.05664 33.59 4.88281 33.0392 5.55078 31.9376C5.64453 31.7618 5.9668 31.1173 6.51758 30.004C7.02148 28.9728 7.51953 28.3341 8.01172 28.088C8.25781 27.9591 8.51562 27.8946 8.78516 27.8946C9.60547 27.8946 10.168 28.2755 10.4727 29.0372C10.6016 29.3419 10.666 29.6818 10.666 30.0568C10.666 31.4513 9.98047 32.3712 8.60938 32.8165C8.22266 32.9337 7.80078 33.0099 7.34375 33.045V33.6778H11.0352C11.0352 33.3849 10.9473 33.2091 10.7715 33.1505C10.666 33.1271 10.502 33.1153 10.2793 33.1153C10.877 32.2013 11.1758 31.129 11.1758 29.8986C11.1758 28.4571 10.8008 27.3497 10.0508 26.5763C9.52344 26.0372 8.87891 25.7677 8.11719 25.7677Z" fill="white"/>
<path d="M13.3981 20.431C13.1006 20.3839 12.8939 20.4695 12.778 20.6879L12.4215 21.5486L3.55443 17.8758L4.09258 16.5766L3.6541 16.3949L1.7504 20.9909L2.18888 21.1725L2.72703 19.8733L11.5941 23.5462L11.056 24.8454L11.4944 25.027L13.3981 20.431Z" fill="white"/>
<path d="M13.8773 12.4412L14.2129 12.7768L15.2943 11.6954L17.5192 13.9203C17.5109 14.7075 17.196 15.4119 16.5746 16.0333C15.4476 17.1603 14.1259 17.239 12.6095 16.2695C12.0626 15.9215 11.4826 15.4409 10.8694 14.8277C8.55746 12.4992 8.16386 10.5643 9.68856 9.02304C10.6084 8.10325 11.6773 7.85466 12.8954 8.27726C13.3429 8.44299 13.8276 8.68744 14.3497 9.01061L14.7101 8.65015L12.0999 6.13937L11.1925 7.51906C10.3888 7.82565 9.68027 8.28555 9.06708 8.89874C7.98156 9.98426 7.42223 11.2231 7.38908 12.6152C7.37251 14.0405 7.94427 15.3331 9.10437 16.4932C10.5379 17.9268 12.1206 18.482 13.8525 18.1588C14.9629 17.9434 15.9407 17.413 16.7859 16.5678C17.4571 15.8966 17.9294 15.1508 18.2028 14.3305L19.856 13.274L16.7859 10.2039L17.6311 9.35864L17.2955 9.02304L13.8773 12.4412Z" fill="white"/>
<path d="M20.8721 2.31333L22.2037 1.76173L24.9348 8.35519L16.1432 3.75837L13.561 4.82794L13.7427 5.26642L15.0419 4.72827L18.7147 13.5953L17.4155 14.1335L17.5971 14.572L20.9426 13.1862C20.7655 12.9425 20.5588 12.8569 20.3225 12.9294L19.3806 13.3195L16.4813 6.32008L25.897 11.2292L26.6904 10.7103L22.8696 1.48592L24.1688 0.947775L23.9872 0.509294L20.6904 1.87485L20.8721 2.31333Z" fill="white"/>
</svg>
